<svg xmlns="http://www.w3.org/2000/svg" xmlns:xlink="http://www.w3.org/1999/xlink" width="500" zoomAndPan="magnify" viewBox="0 0 375 374.999991" height="500" preserveAspectRatio="xMidYMid meet" version="1.0"><defs><g/></defs><g fill="#b226f9" fill-opacity="1"><g transform="translate(49.112969, 205.39596)"><g><path d="M 2.796875 7.140625 C 2.796875 1.160156 3.238281 -5.488281 4.125 -12.8125 C 5.019531 -20.144531 6.257812 -27.78125 7.84375 -35.71875 C 9.425781 -43.65625 11.289062 -51.566406 13.4375 -59.453125 C 15.59375 -67.347656 17.953125 -74.863281 20.515625 -82 C 23.085938 -89.144531 25.773438 -95.519531 28.578125 -101.125 C 29.972656 -103.832031 31.132812 -106.1875 32.0625 -108.1875 C 33 -110.195312 34.59375 -111.4375 36.84375 -111.90625 L 38.234375 -110.796875 C 38.515625 -110.421875 38.675781 -110.253906 38.71875 -110.296875 C 38.769531 -110.347656 38.796875 -110.375 38.796875 -110.375 C 38.796875 -109.625 38.445312 -108.242188 37.75 -106.234375 C 37.050781 -104.222656 36.300781 -102.238281 35.5 -100.28125 C 34.707031 -98.320312 34.125 -96.875 33.75 -95.9375 C 29.269531 -83.425781 25.328125 -71.054688 21.921875 -58.828125 C 18.515625 -46.597656 15.851562 -34.222656 13.9375 -21.703125 C 12.019531 -9.191406 11.0625 3.832031 11.0625 17.375 C 11.0625 20.164062 11.296875 23.40625 11.765625 27.09375 C 12.234375 30.789062 13.003906 34.34375 14.078125 37.75 C 15.148438 41.15625 16.550781 43.976562 18.28125 46.21875 C 20.007812 48.457031 22.132812 49.578125 24.65625 49.578125 C 26.050781 49.578125 27.566406 49.15625 29.203125 48.3125 C 30.835938 47.476562 32.585938 46.128906 34.453125 44.265625 C 39.023438 39.585938 43.15625 33.976562 46.84375 27.4375 C 50.539062 20.90625 53.859375 14.160156 56.796875 7.203125 C 59.734375 0.253906 62.367188 -6.160156 64.703125 -12.046875 C 70.492188 -26.515625 75.421875 -41.289062 79.484375 -56.375 C 83.546875 -71.457031 87.398438 -86.515625 91.046875 -101.546875 C 91.503906 -103.316406 91.941406 -104.851562 92.359375 -106.15625 C 92.785156 -107.46875 93.703125 -108.125 95.109375 -108.125 C 95.660156 -108.125 96.5 -107.890625 97.625 -107.421875 C 98 -105.929688 98.160156 -103.550781 98.109375 -100.28125 C 98.066406 -97.007812 97.878906 -93.296875 97.546875 -89.140625 C 97.222656 -84.992188 96.875 -80.816406 96.5 -76.609375 C 96.125 -72.410156 95.726562 -68.609375 95.3125 -65.203125 C 94.894531 -61.796875 94.59375 -59.203125 94.40625 -57.421875 C 93.65625 -50.890625 92.929688 -43.976562 92.234375 -36.6875 C 91.535156 -29.40625 90.71875 -22.453125 89.78125 -15.828125 C 88.9375 -9.566406 87.953125 -2.773438 86.828125 4.546875 C 85.710938 11.878906 84.453125 19.421875 83.046875 27.171875 C 81.648438 34.921875 80.019531 42.578125 78.15625 50.140625 C 76.289062 57.703125 74.164062 64.84375 71.78125 71.5625 C 69.394531 78.289062 66.710938 84.269531 63.734375 89.5 L 57.84375 99.171875 C 57.1875 99.816406 56.441406 100.140625 55.609375 100.140625 C 54.390625 100.140625 53.78125 99.488281 53.78125 98.1875 C 53.78125 97.34375 54.082031 96.101562 54.6875 94.46875 C 55.300781 92.832031 56.070312 91.054688 57 89.140625 C 57.9375 87.234375 58.820312 85.414062 59.65625 83.6875 C 60.5 81.957031 61.15625 80.628906 61.625 79.703125 C 64.050781 74.097656 66.316406 67.253906 68.421875 59.171875 C 70.523438 51.097656 72.460938 42.414062 74.234375 33.125 C 76.003906 23.832031 77.585938 14.421875 78.984375 4.890625 C 80.390625 -4.628906 81.601562 -13.679688 82.625 -22.265625 C 83.65625 -30.859375 84.546875 -38.421875 85.296875 -44.953125 L 87.8125 -67.09375 C 87.632812 -66.8125 87.566406 -66.765625 87.609375 -66.953125 C 87.648438 -67.140625 87.582031 -66.859375 87.40625 -66.109375 L 82.359375 -49.015625 C 81.421875 -46.035156 80.132812 -41.929688 78.5 -36.703125 C 76.863281 -31.472656 74.898438 -25.613281 72.609375 -19.125 C 70.328125 -12.632812 67.785156 -5.957031 64.984375 0.90625 C 62.179688 7.769531 59.191406 14.445312 56.015625 20.9375 C 52.847656 27.425781 49.515625 33.257812 46.015625 38.4375 C 42.515625 43.625 38.941406 47.757812 35.296875 50.84375 C 31.648438 53.925781 27.960938 55.46875 24.234375 55.46875 C 21.617188 55.46875 19.191406 54.671875 16.953125 53.078125 C 14.054688 51.210938 11.671875 48.4375 9.796875 44.75 C 7.929688 41.0625 6.484375 36.953125 5.453125 32.421875 C 4.429688 27.890625 3.734375 23.40625 3.359375 18.96875 C 2.984375 14.539062 2.796875 10.597656 2.796875 7.140625 Z M 2.796875 7.140625 "/></g></g></g><g fill="#b226f9" fill-opacity="1"><g transform="translate(147.434419, 205.39596)"><g><path d="M 6.4375 -25.34375 C 8.21875 -26.28125 10.179688 -27.566406 12.328125 -29.203125 C 14.472656 -30.835938 15.640625 -32.773438 15.828125 -35.015625 C 14.609375 -34.828125 13.320312 -34.171875 11.96875 -33.046875 C 10.613281 -31.929688 9.445312 -30.671875 8.46875 -29.265625 C 7.488281 -27.867188 6.8125 -26.5625 6.4375 -25.34375 Z M 0.140625 -21.984375 C 0.140625 -24.316406 0.910156 -26.835938 2.453125 -29.546875 C 3.992188 -32.253906 5.90625 -34.566406 8.1875 -36.484375 C 10.476562 -38.398438 12.742188 -39.359375 14.984375 -39.359375 C 18.066406 -39.359375 19.675781 -38.191406 19.8125 -35.859375 C 19.957031 -33.523438 18.957031 -31.003906 16.8125 -28.296875 C 15.6875 -27.078125 14.003906 -25.671875 11.765625 -24.078125 C 9.523438 -22.492188 7.332031 -21.609375 5.1875 -21.421875 C 5.1875 -19.929688 5.234375 -18.601562 5.328125 -17.4375 C 5.421875 -16.269531 6.070312 -15.078125 7.28125 -13.859375 C 8.5 -12.648438 10.039062 -12.046875 11.90625 -12.046875 C 14.332031 -12.046875 16.851562 -12.816406 19.46875 -14.359375 C 22.082031 -15.898438 24.085938 -17.179688 25.484375 -18.203125 C 26.046875 -18.671875 26.488281 -19.046875 26.8125 -19.328125 C 27.144531 -19.609375 27.546875 -19.9375 28.015625 -20.3125 C 29.972656 -21.800781 31.207031 -22.894531 31.71875 -23.59375 C 32.238281 -24.300781 32.679688 -24.769531 33.046875 -25 C 33.421875 -25.226562 34.3125 -25.34375 35.71875 -25.34375 C 35.90625 -24.320312 35.972656 -23.625 35.921875 -23.25 C 35.878906 -22.875 35.53125 -22.3125 34.875 -21.5625 C 33.195312 -19.882812 31.070312 -17.972656 28.5 -15.828125 C 25.9375 -13.679688 23.179688 -11.8125 20.234375 -10.21875 C 17.296875 -8.632812 14.378906 -7.84375 11.484375 -7.84375 C 9.992188 -7.84375 8.570312 -8.097656 7.21875 -8.609375 C 5.863281 -9.128906 4.578125 -9.992188 3.359375 -11.203125 C 1.679688 -12.878906 0.722656 -14.601562 0.484375 -16.375 C 0.253906 -18.15625 0.140625 -20.023438 0.140625 -21.984375 Z M 0.140625 -21.984375 "/></g></g></g><g fill="#b226f9" fill-opacity="1"><g transform="translate(177.827233, 205.39596)"><g><path d="M 7.421875 -11.34375 C 5.460938 -11.34375 4.082031 -12.320312 3.28125 -14.28125 C 2.488281 -16.25 2.140625 -18.675781 2.234375 -21.5625 C 2.328125 -24.457031 2.703125 -27.351562 3.359375 -30.25 C 4.015625 -33.144531 4.832031 -35.570312 5.8125 -37.53125 C 6.789062 -39.5 7.796875 -40.484375 8.828125 -40.484375 C 10.597656 -40.484375 11.644531 -40.082031 11.96875 -39.28125 C 12.300781 -38.488281 12.234375 -37.253906 11.765625 -35.578125 C 11.296875 -33.898438 10.757812 -31.773438 10.15625 -29.203125 C 9.550781 -26.628906 9.25 -23.570312 9.25 -20.03125 C 9.4375 -20.21875 9.570312 -20.359375 9.65625 -20.453125 C 9.75 -20.546875 9.84375 -20.640625 9.9375 -20.734375 L 16.53125 -31.796875 C 17.09375 -32.722656 17.863281 -33.957031 18.84375 -35.5 C 19.820312 -37.039062 20.894531 -38.441406 22.0625 -39.703125 C 23.226562 -40.960938 24.367188 -41.59375 25.484375 -41.59375 C 27.640625 -41.59375 29.039062 -40.492188 29.6875 -38.296875 C 30.34375 -36.109375 30.671875 -33.894531 30.671875 -31.65625 C 31.703125 -31.84375 32.960938 -32.707031 34.453125 -34.25 C 35.953125 -35.789062 37.304688 -37.117188 38.515625 -38.234375 C 39.171875 -38.984375 39.753906 -39.632812 40.265625 -40.1875 C 40.773438 -40.75 41.40625 -41.21875 42.15625 -41.59375 C 43.09375 -42.0625 43.9375 -42.296875 44.6875 -42.296875 C 45.613281 -42.296875 46.40625 -41.921875 47.0625 -41.171875 C 47.71875 -40.429688 48.09375 -39.054688 48.1875 -37.046875 C 48.28125 -35.035156 48.234375 -32.722656 48.046875 -30.109375 C 47.859375 -27.492188 47.644531 -24.878906 47.40625 -22.265625 C 47.175781 -19.648438 47.0625 -17.363281 47.0625 -15.40625 C 47.0625 -11.113281 47.410156 -8.101562 48.109375 -6.375 C 48.804688 -4.644531 49.765625 -3.78125 50.984375 -3.78125 C 52.378906 -3.78125 53.941406 -4.710938 55.671875 -6.578125 C 57.398438 -8.453125 59.128906 -10.648438 60.859375 -13.171875 C 62.585938 -15.691406 64.054688 -17.976562 65.265625 -20.03125 C 65.921875 -21.050781 66.550781 -22.078125 67.15625 -23.109375 C 67.769531 -24.140625 68.820312 -24.65625 70.3125 -24.65625 C 70.59375 -24.65625 70.894531 -24.46875 71.21875 -24.09375 C 71.550781 -23.71875 71.71875 -23.296875 71.71875 -22.828125 C 71.71875 -22.265625 71.4375 -21.46875 70.875 -20.4375 C 70.3125 -19.414062 69.722656 -18.414062 69.109375 -17.4375 C 68.503906 -16.457031 68.019531 -15.6875 67.65625 -15.125 C 67.28125 -14.46875 66.953125 -13.90625 66.671875 -13.4375 C 66.390625 -12.976562 66.015625 -12.375 65.546875 -11.625 C 65.171875 -11.0625 64.796875 -10.570312 64.421875 -10.15625 C 64.054688 -9.738281 63.640625 -9.15625 63.171875 -8.40625 C 61.390625 -5.789062 59.257812 -3.5 56.78125 -1.53125 C 54.3125 0.425781 51.910156 1.40625 49.578125 1.40625 C 48.273438 1.40625 47.015625 0.984375 45.796875 0.140625 C 44.585938 -0.703125 43.609375 -2.148438 42.859375 -4.203125 C 41.546875 -7.660156 40.910156 -11.300781 40.953125 -15.125 C 41.003906 -18.957031 41.3125 -22.691406 41.875 -26.328125 C 42.4375 -29.972656 42.71875 -33.148438 42.71875 -35.859375 C 41.78125 -35.203125 40.632812 -34.125 39.28125 -32.625 C 37.925781 -31.132812 36.550781 -29.757812 35.15625 -28.5 C 33.757812 -27.238281 32.40625 -26.609375 31.09375 -26.609375 C 28.945312 -26.609375 27.472656 -27.632812 26.671875 -29.6875 C 25.878906 -31.75 25.484375 -33.804688 25.484375 -35.859375 C 23.898438 -34.828125 22.382812 -33.003906 20.9375 -30.390625 C 19.488281 -27.773438 18.039062 -25.019531 16.59375 -22.125 C 15.144531 -19.226562 13.695312 -16.726562 12.25 -14.625 C 10.800781 -12.53125 9.285156 -11.4375 7.703125 -11.34375 Z M 7.421875 -11.34375 "/></g></g></g><g fill="#b226f9" fill-opacity="1"><g transform="translate(243.234814, 205.39596)"><g><path d="M 0 -14.140625 C 0 -16.109375 0.460938 -18.535156 1.390625 -21.421875 C 2.328125 -24.316406 3.632812 -27.1875 5.3125 -30.03125 C 7 -32.882812 8.9375 -35.242188 11.125 -37.109375 C 13.320312 -38.984375 15.632812 -39.921875 18.0625 -39.921875 C 20.300781 -39.921875 22.117188 -39.265625 23.515625 -37.953125 C 24.921875 -36.648438 25.765625 -35.320312 26.046875 -33.96875 C 26.328125 -32.613281 25.863281 -31.9375 24.65625 -31.9375 C 23.71875 -31.9375 22.757812 -32.472656 21.78125 -33.546875 C 20.800781 -34.617188 19.65625 -35.15625 18.34375 -35.15625 C 17.320312 -35.15625 16.085938 -34.546875 14.640625 -33.328125 C 13.191406 -32.117188 11.441406 -29.738281 9.390625 -26.1875 C 8.453125 -24.695312 7.585938 -22.757812 6.796875 -20.375 C 6.003906 -18 5.609375 -15.644531 5.609375 -13.3125 C 5.785156 -13.5 5.851562 -13.566406 5.8125 -13.515625 C 5.769531 -13.472656 5.929688 -13.632812 6.296875 -14 L 7.421875 -15.6875 C 8.171875 -16.8125 9.035156 -18.257812 10.015625 -20.03125 C 10.992188 -21.800781 11.992188 -23.597656 13.015625 -25.421875 C 14.046875 -27.242188 14.984375 -28.785156 15.828125 -30.046875 C 16.671875 -31.304688 17.320312 -31.9375 17.78125 -31.9375 C 19.46875 -31.9375 20.453125 -31.328125 20.734375 -30.109375 C 21.015625 -28.898438 21.128906 -27.40625 21.078125 -25.625 C 21.035156 -23.851562 21.195312 -22.082031 21.5625 -20.3125 C 22.125 -17.789062 22.988281 -15.945312 24.15625 -14.78125 C 25.320312 -13.613281 26.65625 -13.03125 28.15625 -13.03125 C 30.769531 -13.03125 33.664062 -14.613281 36.84375 -17.78125 C 38.144531 -19 39.078125 -20.003906 39.640625 -20.796875 C 40.203125 -21.585938 40.945312 -22.5 41.875 -23.53125 C 42.53125 -24.46875 43.375 -24.9375 44.40625 -24.9375 C 45.425781 -24.9375 45.863281 -24.070312 45.71875 -22.34375 C 45.582031 -20.613281 43.742188 -18.019531 40.203125 -14.5625 L 36 -11.203125 C 33.289062 -9.335938 30.675781 -8.40625 28.15625 -8.40625 C 25.820312 -8.40625 23.789062 -9.101562 22.0625 -10.5 C 20.332031 -11.90625 19 -13.632812 18.0625 -15.6875 C 17.132812 -17.738281 16.671875 -19.742188 16.671875 -21.703125 C 16.015625 -21.242188 15.265625 -20.21875 14.421875 -18.625 C 13.585938 -17.039062 12.675781 -15.335938 11.6875 -13.515625 C 10.707031 -11.691406 9.703125 -10.101562 8.671875 -8.75 C 7.648438 -7.394531 6.628906 -6.71875 5.609375 -6.71875 C 2.992188 -6.71875 1.40625 -7.320312 0.84375 -8.53125 C 0.28125 -9.75 0 -11.617188 0 -14.140625 Z M 0 -14.140625 "/></g></g></g><g fill="#b226f9" fill-opacity="1"><g transform="translate(283.851936, 205.39596)"><g><path d="M 3.921875 -7.28125 C 2.148438 -7.28125 1.003906 -8.351562 0.484375 -10.5 C -0.0234375 -12.644531 -0.09375 -15.328125 0.28125 -18.546875 C 0.65625 -21.773438 1.332031 -25 2.3125 -28.21875 C 3.289062 -31.445312 4.382812 -34.132812 5.59375 -36.28125 C 6.8125 -38.425781 7.9375 -39.5 8.96875 -39.5 C 10.550781 -39.5 11.296875 -38.773438 11.203125 -37.328125 C 11.109375 -35.878906 10.640625 -33.960938 9.796875 -31.578125 C 8.960938 -29.203125 8.125 -26.585938 7.28125 -23.734375 C 6.4375 -20.890625 6.015625 -18.113281 6.015625 -15.40625 L 12.75 -25.625 C 13.03125 -26.1875 13.632812 -27.164062 14.5625 -28.5625 C 15.5 -29.96875 16.550781 -31.273438 17.71875 -32.484375 C 18.882812 -33.703125 20.03125 -34.3125 21.15625 -34.3125 C 22.269531 -34.3125 23.15625 -33.566406 23.8125 -32.078125 L 24.65625 -24.234375 C 24.65625 -23.390625 24.703125 -22.078125 24.796875 -20.296875 C 24.890625 -18.523438 25.097656 -16.726562 25.421875 -14.90625 C 25.742188 -13.09375 26.28125 -11.53125 27.03125 -10.21875 C 27.78125 -8.914062 28.804688 -8.265625 30.109375 -8.265625 C 31.515625 -8.265625 32.988281 -9.101562 34.53125 -10.78125 C 36.070312 -12.46875 37.5625 -14.40625 39 -16.59375 C 40.445312 -18.789062 41.753906 -20.726562 42.921875 -22.40625 C 44.097656 -24.09375 45.007812 -24.9375 45.65625 -24.9375 C 47.0625 -24.9375 47.71875 -24.394531 47.625 -23.3125 C 47.53125 -22.238281 47.0625 -21.003906 46.21875 -19.609375 C 45.375 -18.210938 44.507812 -16.90625 43.625 -15.6875 C 42.738281 -14.46875 42.203125 -13.722656 42.015625 -13.453125 C 41.359375 -12.609375 40.46875 -11.53125 39.34375 -10.21875 C 38.226562 -8.914062 37.0625 -7.703125 35.84375 -6.578125 C 34.632812 -5.460938 33.472656 -4.765625 32.359375 -4.484375 C 31.421875 -4.203125 30.53125 -4.0625 29.6875 -4.0625 C 27.539062 -4.0625 25.835938 -4.851562 24.578125 -6.4375 C 23.316406 -8.03125 22.359375 -9.757812 21.703125 -11.625 C 20.773438 -14.425781 20.265625 -16.921875 20.171875 -19.109375 C 20.078125 -21.304688 20.078125 -23.175781 20.171875 -24.71875 C 20.265625 -26.257812 20.078125 -27.453125 19.609375 -28.296875 C 18.484375 -27.546875 17.289062 -26.050781 16.03125 -23.8125 C 14.769531 -21.570312 13.460938 -19.164062 12.109375 -16.59375 C 10.753906 -14.03125 9.398438 -11.835938 8.046875 -10.015625 C 6.691406 -8.191406 5.316406 -7.28125 3.921875 -7.28125 Z M 3.921875 -7.28125 "/></g></g></g></svg>